# xmcd CD database file
#
# Track frame offsets:
#	150
#	22375
#	39432
#	57394
#	75807
#	87751
#	103974
#	122146
#	140404
#	153299
#	166026
#	186787
#
# Disc length: 2694 seconds
#
# Revision: 0
# Processed by: cddbd v1.5.1PL2 Copyright (c) Steve Scherf et al.
# Submitted via: CDex 1.51
#
DISCID=930a840c
DTITLE=Louis Armstrong AllStars - The Best Of (Sel Satchmo Plays King Oliver)
DYEAR=1959
DGENRE=Jazz
TTITLE0=St. James Infirmary 
TTITLE1=I Want a Big Butter and Egg Man
TTITLE2=I Ain't Got Nobody
TTITLE3=Panama Rag
TTITLE4=Dr. Jazz
TTITLE5=Hot Time in the Old Town Tonight
TTITLE6=Frankie and Johnny
TTITLE7=I Ain't Gonna Give Nobody None of This Jelly Roll
TTITLE8=Drop That Sack
TTITLE9=Jelly Roll Blues
TTITLE10=Old Kentucky Home
TTITLE11=Chimes Blues
EXTD=YEAR: 1959
EXTT0=
EXTT1=
EXTT2=
EXTT3=
EXTT4=
EXTT5=
EXTT6=
EXTT7=
EXTT8=
EXTT9=
EXTT10=
EXTT11=
PLAYORDER=
